<svg width="51" height="50" viewBox="0 0 51 50" fill="none" xmlns="http://www.w3.org/2000/svg">
<rect x="0.5" width="50" height="50" rx="8" fill="#EFFC76" fill-opacity="0.12"/>
<path d="M26.375 19.1667C26.375 18.9346 26.2828 18.712 26.1187 18.5479C25.9546 18.3838 25.7321 18.2917 25.5 18.2917C25.2679 18.2917 25.0454 18.3838 24.8813 18.5479C24.7172 18.712 24.625 18.9346 24.625 19.1667V25C24.6249 25.1483 24.6626 25.2943 24.7344 25.4241C24.8063 25.5539 24.9099 25.6633 25.0357 25.742L28.5357 27.9295C28.7325 28.0526 28.9701 28.0926 29.1963 28.0405C29.3084 28.0147 29.4142 27.9671 29.5078 27.9004C29.6015 27.8337 29.681 27.7493 29.742 27.6518C29.803 27.5544 29.8442 27.4459 29.8632 27.3325C29.8823 27.2192 29.8788 27.1032 29.853 26.9911C29.8272 26.8791 29.7796 26.7733 29.7129 26.6797C29.6463 26.586 29.5618 26.5065 29.4643 26.4455L26.375 24.5147V19.1667Z" fill="#EFFC76"/>
<path fill-rule="evenodd" clip-rule="evenodd" d="M26 14C23.0826 14 20.2847 15.1589 18.2218 17.2218C16.1589 19.2847 15 22.0826 15 25C15 27.9174 16.1589 30.7153 18.2218 32.7782C20.2847 34.8411 23.0826 36 26 36C28.9174 36 31.7153 34.8411 33.7782 32.7782C35.8411 30.7153 37 27.9174 37 25C37 22.0826 35.8411 19.2847 33.7782 17.2218C31.7153 15.1589 28.9174 14 26 14ZM16.8857 25C16.8857 23.8031 17.1215 22.6179 17.5795 21.5121C18.0375 20.4063 18.7089 19.4016 19.5552 18.5552C20.4016 17.7089 21.4063 17.0375 22.5121 16.5795C23.6179 16.1215 24.8031 15.8857 26 15.8857C27.1969 15.8857 28.3821 16.1215 29.4879 16.5795C30.5937 17.0375 31.5984 17.7089 32.4448 18.5552C33.2911 19.4016 33.9625 20.4063 34.4205 21.5121C34.8785 22.6179 35.1143 23.8031 35.1143 25C35.1143 27.4173 34.154 29.7355 32.4448 31.4448C30.7355 33.154 28.4173 34.1143 26 34.1143C23.5827 34.1143 21.2645 33.154 19.5552 31.4448C17.846 29.7355 16.8857 27.4173 16.8857 25Z" fill="#EFFC76"/>
</svg>
