<svg width="50" height="50" viewBox="0 0 50 50" fill="none" xmlns="http://www.w3.org/2000/svg">
<rect width="50" height="50" rx="8" fill="#EFFC76" fill-opacity="0.12"/>
<path d="M15.666 19.1667C15.666 16.9663 15.666 15.8673 16.3497 15.1837C17.0333 14.5 18.1323 14.5 20.3327 14.5H29.666C31.8664 14.5 32.9653 14.5 33.649 15.1837C34.3327 15.8673 34.3327 16.9663 34.3327 19.1667V28.5C34.3327 31.7993 34.3327 33.4502 33.3072 34.4745C32.2829 35.5 30.632 35.5 27.3327 35.5H22.666C19.3667 35.5 17.7158 35.5 16.6915 34.4745C15.666 33.4502 15.666 31.7993 15.666 28.5V19.1667Z" stroke="#EFFC76"/>
<path d="M28.5 32.0001V35.5001M21.5 32.0001V35.5001M21.5 20.3334H28.5M21.5 25.0001H28.5" stroke="#EFFC76" stroke-linecap="round"/>
</svg>
