<svg width="50" height="50" viewBox="0 0 50 50" fill="none" xmlns="http://www.w3.org/2000/svg">
<rect width="50" height="50" rx="8" fill="#EFFC76" fill-opacity="0.12"/>
<path d="M24.4167 36.6667C19.7418 36.6667 17.405 36.6667 15.9525 34.9575C14.5 33.2507 14.5 30.4997 14.5 25C14.5 19.5003 14.5 16.7505 15.9525 15.0413C17.405 13.3322 19.7418 13.3333 24.4167 13.3333C29.0915 13.3333 31.4283 13.3333 32.8808 15.0413C34.0498 16.418 34.2785 18.4678 34.3228 22.0833M20.3333 20.3333H28.5M20.3333 26.1667H23.8333" stroke="#EFFC76" stroke-linecap="round" stroke-linejoin="round"/>
<path d="M33.8787 32.1225C34.5513 31.6336 35.0519 30.9443 35.3087 30.1535C35.5655 29.3626 35.5653 28.5107 35.3082 27.72C35.0511 26.9292 34.5502 26.2402 33.8774 25.7515C33.2046 25.2629 32.3944 24.9998 31.5629 25H31.2701C30.4387 25.0001 29.6286 25.2634 28.956 25.7521C28.2834 26.2408 27.7828 26.9298 27.5258 27.7205C27.2688 28.5112 27.2687 29.363 27.5256 30.1537C27.7824 30.9445 28.2829 31.6337 28.9554 32.1225M28.9554 32.1225C29.6276 32.6126 30.4382 32.8761 31.2701 32.875H31.5617C32.3936 32.8761 33.2042 32.6126 33.8764 32.1225L34.5566 34.2633C34.8156 35.08 34.9462 35.4883 34.9101 35.7427C34.8366 36.2723 34.4049 36.6643 33.8951 36.6667C33.6501 36.6667 33.2837 36.4753 32.5499 36.0903C32.2349 35.9247 32.0786 35.843 31.9176 35.794C31.5903 35.6961 31.2415 35.6961 30.9142 35.794C30.7532 35.843 30.5957 35.9247 30.2819 36.0903C29.5481 36.4753 29.1817 36.6678 28.9367 36.6667C28.4269 36.6643 27.9952 36.2723 27.9217 35.7427C27.8867 35.4883 28.0151 35.08 28.2752 34.2633L28.9554 32.1225Z" stroke="#EFFC76"/>
</svg>
