<svg width="48" height="48" viewBox="0 0 48 48" fill="none" xmlns="http://www.w3.org/2000/svg">
<rect width="48" height="48" rx="8" fill="#EFFC76" fill-opacity="0.12"/>
<path d="M17.0007 35.6666V14.6666C17.0007 14.0477 17.2465 13.4543 17.6841 13.0167C18.1217 12.5791 18.7151 12.3333 19.334 12.3333H28.6673C29.2862 12.3333 29.8796 12.5791 30.3172 13.0167C30.7548 13.4543 31.0007 14.0477 31.0007 14.6666V35.6666M17.0007 35.6666H31.0007M17.0007 35.6666H14.6673C14.0485 35.6666 13.455 35.4208 13.0174 34.9832C12.5798 34.5456 12.334 33.9521 12.334 33.3333V26.3333C12.334 25.7144 12.5798 25.1209 13.0174 24.6833C13.455 24.2458 14.0485 23.9999 14.6673 23.9999H17.0007M31.0007 35.6666H33.334C33.9528 35.6666 34.5463 35.4208 34.9839 34.9832C35.4215 34.5456 35.6673 33.9521 35.6673 33.3333V22.8333C35.6673 22.2144 35.4215 21.6209 34.9839 21.1833C34.5463 20.7458 33.9528 20.4999 33.334 20.4999H31.0007M21.6673 16.9999H26.334M21.6673 21.6666H26.334M21.6673 26.3333H26.334M21.6673 30.9999H26.334" stroke="#EFFC76" stroke-width="1.5" stroke-linecap="round" stroke-linejoin="round"/>
</svg>
