<svg width="7" height="12" viewBox="0 0 7 12" fill="none" xmlns="http://www.w3.org/2000/svg">
<path d="M0.707978 6.3169L5.58435 10.9632C5.66572 11.0407 5.77382 11.084 5.88623 11.084C5.99864 11.084 6.10674 11.0407 6.1881 10.9632L6.19335 10.9579C6.23293 10.9203 6.26445 10.875 6.28599 10.8249C6.30752 10.7747 6.31863 10.7207 6.31863 10.6661C6.31863 10.6115 6.30752 10.5575 6.28599 10.5073C6.26445 10.4571 6.23293 10.4119 6.19335 10.3743L1.60135 5.99928L6.19335 1.62603C6.23293 1.58842 6.26445 1.54316 6.28599 1.493C6.30752 1.44283 6.31863 1.38881 6.31863 1.33421C6.31863 1.27962 6.30752 1.2256 6.28599 1.17543C6.26445 1.12526 6.23293 1.08 6.19335 1.0424L6.1881 1.03715C6.10674 0.959586 5.99864 0.916317 5.88623 0.916317C5.77382 0.916317 5.66572 0.959586 5.58435 1.03715L0.707978 5.6834C0.665093 5.72426 0.630951 5.7734 0.607623 5.82785C0.584295 5.8823 0.572266 5.94092 0.572266 6.00015C0.572266 6.05939 0.584295 6.118 0.607623 6.17245C0.630951 6.2269 0.665093 6.27604 0.707978 6.3169Z" fill="white" fill-opacity="0.8"/>
</svg>
