<svg width="7" height="12" viewBox="0 0 7 12" fill="none" xmlns="http://www.w3.org/2000/svg">
<path d="M6.29202 5.6831L1.41565 1.03685C1.33428 0.959285 1.22618 0.916016 1.11377 0.916016C1.00136 0.916016 0.893262 0.959285 0.811897 1.03685L0.806646 1.0421C0.767066 1.0797 0.735549 1.12496 0.714012 1.17513C0.692475 1.22529 0.681368 1.27932 0.681368 1.33391C0.681368 1.38851 0.692475 1.44253 0.714012 1.4927C0.735549 1.54286 0.767066 1.58812 0.806646 1.62572L5.39865 6.00072L0.806646 10.374C0.767066 10.4116 0.735549 10.4568 0.714012 10.507C0.692475 10.5572 0.681368 10.6112 0.681368 10.6658C0.681368 10.7204 0.692475 10.7744 0.714012 10.8246C0.735549 10.8747 0.767066 10.92 0.806646 10.9576L0.811897 10.9628C0.893262 11.0404 1.00136 11.0837 1.11377 11.0837C1.22618 11.0837 1.33428 11.0404 1.41565 10.9628L6.29202 6.3166C6.33491 6.27574 6.36905 6.2266 6.39238 6.17215C6.41571 6.1177 6.42773 6.05908 6.42773 5.99985C6.42773 5.94061 6.41571 5.882 6.39238 5.82755C6.36905 5.7731 6.33491 5.72396 6.29202 5.6831Z" fill="white" fill-opacity="0.8"/>
</svg>
