<svg width="20" height="20" viewBox="0 0 20 20" fill="none" xmlns="http://www.w3.org/2000/svg">
<path d="M15.362 4.12926H13.7454V2.95426C13.7454 2.7376 13.5537 2.52926 13.3287 2.5376C13.1037 2.54593 12.912 2.72093 12.912 2.95426V4.12926H7.07871V2.95426C7.07871 2.7376 6.88704 2.52926 6.66204 2.5376C6.43704 2.54593 6.24538 2.72093 6.24538 2.95426V4.12926H4.63704C4.08451 4.12926 3.55461 4.34876 3.16391 4.73946C2.7732 5.13016 2.55371 5.66006 2.55371 6.2126V15.3793C2.55371 15.9318 2.7732 16.4617 3.16391 16.8524C3.55461 17.2431 4.08451 17.4626 4.63704 17.4626H15.362C15.9146 17.4626 16.4445 17.2431 16.8352 16.8524C17.2259 16.4617 17.4454 15.9318 17.4454 15.3793V6.2126C17.4454 5.66006 17.2259 5.13016 16.8352 4.73946C16.4445 4.34876 15.9146 4.12926 15.362 4.12926ZM16.612 15.3793C16.612 16.0709 16.0537 16.6293 15.362 16.6293H4.63704C3.94538 16.6293 3.38704 16.0709 3.38704 15.3793V8.3626H16.612V15.3793ZM16.612 7.52926H3.38704V6.2126C3.38704 5.52093 3.94538 4.9626 4.63704 4.9626H6.24538V5.45426C6.24538 5.67093 6.43704 5.87926 6.66204 5.87093C6.88704 5.8626 7.07871 5.6876 7.07871 5.45426V4.9626H12.912V5.45426C12.912 5.67093 13.1037 5.87926 13.3287 5.87093C13.5537 5.8626 13.7454 5.6876 13.7454 5.45426V4.9626H15.362C16.0537 4.9626 16.612 5.52093 16.612 6.2126V7.52926Z" fill="white" fill-opacity="0.6"/>
<path d="M9.57643 14.3109V11.4276C9.57642 11.4165 9.57346 11.4056 9.56786 11.396C9.56225 11.3865 9.5542 11.3785 9.54453 11.3731C9.53486 11.3677 9.52392 11.3649 9.51283 11.3651C9.50174 11.3653 9.4909 11.3685 9.48143 11.3742L8.94977 11.7009C8.93082 11.7124 8.90915 11.7187 8.88697 11.7191C8.8648 11.7195 8.84291 11.714 8.82357 11.7031C8.80423 11.6923 8.78813 11.6765 8.77692 11.6573C8.7657 11.6382 8.75978 11.6164 8.75977 11.5942V11.0517C8.75977 10.9642 8.8056 10.8826 8.88143 10.8376L9.5181 10.4567C9.55685 10.4334 9.6012 10.421 9.64643 10.4209H10.1681C10.2009 10.4209 10.2334 10.4274 10.2638 10.4399C10.2941 10.4525 10.3217 10.4709 10.3449 10.4941C10.3681 10.5173 10.3865 10.5449 10.3991 10.5752C10.4116 10.6056 10.4181 10.6381 10.4181 10.6709V14.3101C10.4181 14.3764 10.3918 14.44 10.3449 14.4868C10.298 14.5337 10.2344 14.5601 10.1681 14.5601H9.82727C9.79444 14.5602 9.7619 14.5538 9.73153 14.5414C9.70116 14.5289 9.67354 14.5106 9.65024 14.4874C9.62695 14.4643 9.60845 14.4368 9.59578 14.4065C9.58312 14.3762 9.57654 14.3437 9.57643 14.3109Z" fill="white" fill-opacity="0.6"/>
</svg>
