<svg width="44" height="44" viewBox="0 0 44 44" fill="none" xmlns="http://www.w3.org/2000/svg">
<rect width="44" height="44" rx="8" fill="#EFFC76" fill-opacity="0.12"/>
<path fill-rule="evenodd" clip-rule="evenodd" d="M23.0476 12.0024C21.6169 11.9707 20.1966 12.257 18.8859 12.8412C17.5751 13.4255 16.4056 14.2936 15.459 15.385C14.5123 16.4764 13.8113 17.7647 13.4049 19.1601C12.9985 20.5555 12.8964 22.0243 13.1059 23.4639C13.3154 24.9035 13.8314 26.2793 14.6178 27.4952C15.4042 28.7111 16.4421 29.7377 17.6591 30.5035C18.876 31.2693 20.2426 31.7558 21.6636 31.929C23.0845 32.1021 24.5254 31.9578 25.8859 31.5061C26.1183 31.4289 26.311 31.2609 26.4217 31.0391C26.5323 30.8174 26.5518 30.56 26.4759 30.3236C26.3999 30.0872 26.2347 29.8912 26.0167 29.7787C25.7986 29.6662 25.5455 29.6464 25.313 29.7236C23.8347 30.2145 22.2476 30.256 20.7464 29.843C19.2452 29.43 17.8951 28.5804 16.8618 27.3985C15.8285 26.2166 15.1568 24.7537 14.9292 23.1892C14.7015 21.6248 14.9278 20.0268 15.5803 18.5912C16.2327 17.1556 17.283 15.9449 18.6023 15.1075C19.9215 14.2701 21.4524 13.8424 23.0073 13.8769C24.5621 13.9114 26.0732 14.4066 27.3553 15.3017C28.6374 16.1968 29.6347 17.453 30.225 18.9161C30.3177 19.1462 30.4965 19.3294 30.7221 19.4254C30.8338 19.4729 30.9536 19.4976 31.0747 19.498C31.1957 19.4985 31.3157 19.4747 31.4277 19.428C31.5398 19.3813 31.6417 19.3126 31.7276 19.2259C31.8135 19.1391 31.8818 19.036 31.9285 18.9224C31.9753 18.8089 31.9996 18.687 32 18.5639C32.0004 18.4408 31.977 18.3188 31.9311 18.2049C31.2047 16.404 29.9772 14.8578 28.3992 13.7561C26.8212 12.6543 24.9613 12.0448 23.0476 12.0024ZM23.7544 16.6874C23.7544 16.4387 23.6573 16.2003 23.4844 16.0245C23.3115 15.8486 23.077 15.7499 22.8325 15.7499C22.588 15.7499 22.3535 15.8486 22.1806 16.0245C22.0077 16.2003 21.9106 16.4387 21.9106 16.6874V21.6124L19.4104 24.1536C19.3198 24.2394 19.2472 24.3429 19.1968 24.4579C19.1464 24.5729 19.1193 24.6971 19.1171 24.823C19.1149 24.9488 19.1377 25.0739 19.1841 25.1906C19.2304 25.3073 19.2994 25.4134 19.387 25.5024C19.4745 25.5914 19.5788 25.6616 19.6936 25.7088C19.8084 25.7559 19.9314 25.7791 20.0551 25.7769C20.1789 25.7746 20.301 25.7471 20.4141 25.6958C20.5272 25.6446 20.629 25.5707 20.7134 25.4786L23.484 22.6624L23.7544 22.3874V16.6874ZM31.437 30.7499C31.437 31.0814 31.3075 31.3993 31.0769 31.6337C30.8464 31.8682 30.5338 31.9999 30.2078 31.9999C29.8817 31.9999 29.5691 31.8682 29.3386 31.6337C29.1081 31.3993 28.9785 31.0814 28.9785 30.7499C28.9785 30.4183 29.1081 30.1004 29.3386 29.866C29.5691 29.6316 29.8817 29.4999 30.2078 29.4999C30.5338 29.4999 30.8464 29.6316 31.0769 29.866C31.3075 30.1004 31.437 30.4183 31.437 30.7499ZM31.1297 22.9374C31.1297 22.6887 31.0325 22.4503 30.8596 22.2745C30.6867 22.0986 30.4523 21.9999 30.2078 21.9999C29.9632 21.9999 29.7288 22.0986 29.5559 22.2745C29.383 22.4503 29.2858 22.6887 29.2858 22.9374V27.3124C29.2858 27.561 29.383 27.7995 29.5559 27.9753C29.7288 28.1511 29.9632 28.2499 30.2078 28.2499C30.4523 28.2499 30.6867 28.1511 30.8596 27.9753C31.0325 27.7995 31.1297 27.561 31.1297 27.3124V22.9374Z" fill="#EFFC76"/>
</svg>
