<svg width="44" height="44" viewBox="0 0 44 44" fill="none" xmlns="http://www.w3.org/2000/svg">
<rect width="44" height="44" rx="8" fill="#EFFC76" fill-opacity="0.12"/>
<path d="M16 32V14C16 13.4696 16.2107 12.9609 16.5858 12.5858C16.9609 12.2107 17.4696 12 18 12H26C26.5304 12 27.0391 12.2107 27.4142 12.5858C27.7893 12.9609 28 13.4696 28 14V32M16 32H28M16 32H14C13.4696 32 12.9609 31.7893 12.5858 31.4142C12.2107 31.0391 12 30.5304 12 30V24C12 23.4696 12.2107 22.9609 12.5858 22.5858C12.9609 22.2107 13.4696 22 14 22H16M28 32H30C30.5304 32 31.0391 31.7893 31.4142 31.4142C31.7893 31.0391 32 30.5304 32 30V21C32 20.4696 31.7893 19.9609 31.4142 19.5858C31.0391 19.2107 30.5304 19 30 19H28M20 16H24M20 20H24M20 24H24M20 28H24" stroke="#EFFC76" stroke-width="1.5" stroke-linecap="round" stroke-linejoin="round"/>
</svg>
