<svg width="44" height="44" viewBox="0 0 44 44" fill="none" xmlns="http://www.w3.org/2000/svg">
<rect width="44" height="44" rx="8" fill="#EFFC76" fill-opacity="0.12"/>
<path d="M20 30.777C19.1299 30.5788 18.2941 30.2522 17.52 29.808M24 13.223C25.9882 13.6771 27.7633 14.7927 29.0347 16.3872C30.3061 17.9817 30.9985 19.9607 30.9985 22C30.9985 24.0394 30.3061 26.0183 29.0347 27.6128C27.7633 29.2073 25.9882 30.323 24 30.777M14.579 27.093C14.0341 26.3002 13.6199 25.425 13.352 24.501M13.124 20.5C13.284 19.55 13.592 18.65 14.024 17.825L14.193 17.52M16.907 14.579C17.8432 13.9359 18.8927 13.4758 20 13.223" stroke="#EFFC76" stroke-width="2" stroke-linecap="round" stroke-linejoin="round"/>
</svg>
