<svg width="44" height="44" viewBox="0 0 44 44" fill="none" xmlns="http://www.w3.org/2000/svg">
<rect width="44" height="44" rx="8" fill="#EFFC76" fill-opacity="0.12"/>
<path d="M14 12.5C13.8674 12.5 13.7402 12.5527 13.6464 12.6464C13.5527 12.7402 13.5 12.8674 13.5 13V31C13.5 31.1326 13.5527 31.2598 13.6464 31.3536C13.7402 31.4473 13.8674 31.5 14 31.5H20C20.1989 31.5 20.3897 31.579 20.5303 31.7197C20.671 31.8603 20.75 32.0511 20.75 32.25C20.75 32.4489 20.671 32.6397 20.5303 32.7803C20.3897 32.921 20.1989 33 20 33H14C13.4696 33 12.9609 32.7893 12.5858 32.4142C12.2107 32.0391 12 31.5304 12 31V13C12 12.4696 12.2107 11.9609 12.5858 11.5858C12.9609 11.2107 13.4696 11 14 11H24.982C25.5124 11.0001 26.021 11.2109 26.396 11.586L26.46 11.65L26.47 11.658L26.78 11.97C26.9125 12.1122 26.9846 12.3002 26.9812 12.4945C26.9777 12.6888 26.899 12.8742 26.7616 13.0116C26.6242 13.149 26.4388 13.2277 26.2445 13.2312C26.0502 13.2346 25.8622 13.1625 25.72 13.03L25.642 12.952L25.638 12.949L25.545 12.856L25.335 12.646C25.2413 12.5525 25.1144 12.5 24.982 12.5H14Z" fill="#EFFC76"/>
<path d="M28 16.25C26.8728 16.25 25.7918 16.6978 24.9948 17.4948C24.1978 18.2918 23.75 19.3728 23.75 20.5C23.75 21.6272 24.1978 22.7082 24.9948 23.5052C25.7918 24.3022 26.8728 24.75 28 24.75C29.1272 24.75 30.2082 24.3022 31.0052 23.5052C31.8022 22.7082 32.25 21.6272 32.25 20.5C32.25 19.3728 31.8022 18.2918 31.0052 17.4948C30.2082 16.6978 29.1272 16.25 28 16.25ZM22.25 20.5C22.25 19.7449 22.3987 18.9972 22.6877 18.2996C22.9767 17.6019 23.4002 16.9681 23.9341 16.4341C24.4681 15.9002 25.1019 15.4767 25.7996 15.1877C26.4972 14.8987 27.2449 14.75 28 14.75C28.7551 14.75 29.5028 14.8987 30.2004 15.1877C30.8981 15.4767 31.5319 15.9002 32.0659 16.4341C32.5998 16.9681 33.0233 17.6019 33.3123 18.2996C33.6013 18.9972 33.75 19.7449 33.75 20.5C33.75 22.025 33.1442 23.4875 32.0659 24.5659C30.9875 25.6442 29.525 26.25 28 26.25C26.475 26.25 25.0125 25.6442 23.9341 24.5659C22.8558 23.4875 22.25 22.025 22.25 20.5Z" fill="#EFFC76"/>
<path d="M31.2831 24.866L32.7381 32.866C32.7618 32.9965 32.7504 33.131 32.7052 33.2557C32.66 33.3804 32.5825 33.4909 32.4806 33.5759C32.3788 33.6609 32.2562 33.7173 32.1254 33.7395C31.9946 33.7616 31.8602 33.7487 31.7361 33.702L28.4401 32.462C28.1564 32.3553 27.8437 32.3553 27.5601 32.462L24.2641 33.702C24.1399 33.7487 24.0056 33.7616 23.8748 33.7395C23.744 33.7173 23.6214 33.6609 23.5195 33.5759C23.4177 33.4909 23.3402 33.3804 23.2949 33.2557C23.2497 33.131 23.2384 32.9965 23.2621 32.866L24.7171 24.866L26.1921 25.134L24.9751 31.832L27.0311 31.058C27.6557 30.8228 28.3445 30.8228 28.9691 31.058L31.0251 31.832L29.8081 25.134L31.2831 24.866Z" fill="#EFFC76"/>
</svg>
