<svg width="48" height="48" viewBox="0 0 48 48" fill="none" xmlns="http://www.w3.org/2000/svg">
<rect width="48" height="48" rx="8" fill="#EFFC76" fill-opacity="0.12"/>
<path d="M23.4167 35.6668C18.7418 35.6668 16.405 35.6668 14.9525 33.9577C13.5 32.2508 13.5 29.4998 13.5 24.0002C13.5 18.5005 13.5 15.7507 14.9525 14.0415C16.405 12.3323 18.7418 12.3335 23.4167 12.3335C28.0915 12.3335 30.4283 12.3335 31.8808 14.0415C33.0498 15.4182 33.2785 17.468 33.3228 21.0835M19.3333 19.3335H27.5M19.3333 25.1668H22.8333" stroke="#EFFC76" stroke-linecap="round" stroke-linejoin="round"/>
<path d="M32.8787 31.1225C33.5513 30.6336 34.0519 29.9443 34.3087 29.1535C34.5655 28.3626 34.5653 27.5107 34.3082 26.72C34.0511 25.9292 33.5502 25.2402 32.8774 24.7515C32.2046 24.2629 31.3944 23.9998 30.5629 24H30.2701C29.4387 24.0001 28.6286 24.2634 27.956 24.7521C27.2834 25.2408 26.7828 25.9298 26.5258 26.7205C26.2688 27.5112 26.2687 28.363 26.5256 29.1537C26.7824 29.9445 27.2829 30.6337 27.9554 31.1225M27.9554 31.1225C28.6276 31.6126 29.4382 31.8761 30.2701 31.875H30.5617C31.3936 31.8761 32.2042 31.6126 32.8764 31.1225L33.5566 33.2633C33.8156 34.08 33.9462 34.4883 33.9101 34.7427C33.8366 35.2723 33.4049 35.6643 32.8951 35.6667C32.6501 35.6667 32.2837 35.4753 31.5499 35.0903C31.2349 34.9247 31.0786 34.843 30.9176 34.794C30.5903 34.6961 30.2415 34.6961 29.9142 34.794C29.7532 34.843 29.5957 34.9247 29.2819 35.0903C28.5481 35.4753 28.1817 35.6678 27.9367 35.6667C27.4269 35.6643 26.9952 35.2723 26.9217 34.7427C26.8867 34.4883 27.0151 34.08 27.2752 33.2633L27.9554 31.1225Z" stroke="#EFFC76"/>
</svg>
