<svg width="18" height="18" viewBox="0 0 18 18" fill="none" xmlns="http://www.w3.org/2000/svg">
<path fill-rule="evenodd" clip-rule="evenodd" d="M8.95283 0.0419922H9.04783C10.972 0.0419922 12.4795 0.0419922 13.6562 0.200326C14.8595 0.361992 15.8095 0.700326 16.5553 1.44533C17.3012 2.19116 17.6387 3.14116 17.8003 4.34533C17.9587 5.52116 17.9587 7.02866 17.9587 8.95283V9.04783C17.9587 10.972 17.9587 12.4795 17.8003 13.6562C17.6387 14.8595 17.3003 15.8095 16.5553 16.5553C15.8095 17.3012 14.8595 17.6387 13.6553 17.8003C12.4795 17.9587 10.972 17.9587 9.04783 17.9587H8.95283C7.02866 17.9587 5.52116 17.9587 4.34449 17.8003C3.14116 17.6387 2.19116 17.3003 1.44533 16.5553C0.699492 15.8095 0.361992 14.8595 0.200326 13.6553C0.0419922 12.4795 0.0419922 10.972 0.0419922 9.04783V8.95283C0.0419922 7.02866 0.0419922 5.52116 0.200326 4.34449C0.361992 3.14116 0.700326 2.19116 1.44533 1.44533C2.19116 0.699492 3.14116 0.361992 4.34533 0.200326C5.52116 0.0419922 7.02866 0.0419922 8.95283 0.0419922ZM4.51116 1.43866C3.44616 1.58199 2.80366 1.85533 2.32949 2.32949C1.85449 2.80449 1.58199 3.44616 1.43866 4.51199C1.29366 5.59532 1.29199 7.01866 1.29199 9.00033C1.29199 10.982 1.29366 12.4053 1.43866 13.4887C1.58199 14.5545 1.85533 15.197 2.32949 15.672C2.80449 16.1462 3.44616 16.4187 4.51199 16.562C5.59532 16.707 7.01866 16.7087 9.00033 16.7087C10.982 16.7087 12.4053 16.707 13.4887 16.562C14.5545 16.4187 15.197 16.1453 15.672 15.6712C16.1462 15.1962 16.4187 14.5545 16.562 13.4887C16.707 12.4053 16.7087 10.982 16.7087 9.00033C16.7087 7.01866 16.707 5.59532 16.562 4.51199C16.4187 3.44616 16.1453 2.80366 15.6712 2.32866C15.1962 1.85449 14.5545 1.58199 13.4887 1.43866C12.4053 1.29366 10.982 1.29199 9.00033 1.29199C7.01866 1.29199 5.59449 1.29366 4.51116 1.43866ZM7.76533 4.38033C7.82485 4.43693 7.87263 4.50471 7.90594 4.5798C7.93924 4.65489 7.95742 4.7358 7.95944 4.81792C7.96145 4.90003 7.94725 4.98174 7.91767 5.05837C7.88808 5.135 7.84367 5.20504 7.78699 5.26449L5.40616 7.76449C5.34779 7.82576 5.27758 7.87453 5.1998 7.90786C5.12202 7.94118 5.03828 7.95837 4.95366 7.95837C4.86904 7.95837 4.7853 7.94118 4.70752 7.90786C4.62973 7.87453 4.55953 7.82576 4.50116 7.76449L3.54866 6.76449C3.48963 6.70556 3.44299 6.63541 3.4115 6.55818C3.38 6.48094 3.36428 6.39818 3.36527 6.31478C3.36626 6.23137 3.38393 6.14901 3.41724 6.07254C3.45056 5.99607 3.49885 5.92705 3.55925 5.86953C3.61966 5.81201 3.69097 5.76717 3.76898 5.73765C3.84699 5.70812 3.93012 5.69451 4.01348 5.69761C4.09683 5.70071 4.17872 5.72047 4.25432 5.75571C4.32991 5.79096 4.39769 5.84098 4.45366 5.90283L4.95366 6.42783L6.88199 4.40283C6.99628 4.28286 7.15353 4.21319 7.31917 4.20913C7.48481 4.20507 7.64529 4.26611 7.76533 4.38033ZM9.20866 6.50033C9.20866 6.33457 9.27451 6.17559 9.39172 6.05838C9.50893 5.94117 9.6679 5.87533 9.83366 5.87533H14.0003C14.1661 5.87533 14.3251 5.94117 14.4423 6.05838C14.5595 6.17559 14.6253 6.33457 14.6253 6.50033C14.6253 6.66609 14.5595 6.82506 14.4423 6.94227C14.3251 7.05948 14.1661 7.12533 14.0003 7.12533H9.83366C9.6679 7.12533 9.50893 7.05948 9.39172 6.94227C9.27451 6.82506 9.20866 6.66609 9.20866 6.50033ZM7.76449 10.2145C8.01449 10.4528 8.02449 10.8478 7.78616 11.0978L5.40533 13.5978C5.34695 13.6591 5.27675 13.7079 5.19897 13.7412C5.12119 13.7745 5.03745 13.7917 4.95283 13.7917C4.8682 13.7917 4.78447 13.7745 4.70668 13.7412C4.6289 13.7079 4.5587 13.6591 4.50033 13.5978L3.54783 12.5978C3.4888 12.5389 3.44216 12.4687 3.41066 12.3915C3.37917 12.3143 3.36345 12.2315 3.36444 12.1481C3.36542 12.0647 3.3831 11.9823 3.41641 11.9059C3.44973 11.8294 3.49801 11.7604 3.55842 11.7029C3.61883 11.6453 3.69014 11.6005 3.76815 11.571C3.84616 11.5415 3.92929 11.5278 4.01264 11.5309C4.096 11.534 4.17788 11.5538 4.25348 11.589C4.32908 11.6243 4.39686 11.6743 4.45283 11.7362L4.95283 12.2612L6.88116 10.2362C6.99545 10.1162 7.1527 10.0465 7.31834 10.0425C7.48398 10.0384 7.64446 10.1003 7.76449 10.2145ZM9.20866 12.3337C9.20866 12.1679 9.27451 12.0089 9.39172 11.8917C9.50893 11.7745 9.6679 11.7087 9.83366 11.7087H14.0003C14.1661 11.7087 14.3251 11.7745 14.4423 11.8917C14.5595 12.0089 14.6253 12.1679 14.6253 12.3337C14.6253 12.4994 14.5595 12.6584 14.4423 12.7756C14.3251 12.8928 14.1661 12.9587 14.0003 12.9587H9.83366C9.6679 12.9587 9.50893 12.8928 9.39172 12.7756C9.27451 12.6584 9.20866 12.4994 9.20866 12.3337Z" fill="white" fill-opacity="0.8"/>
</svg>
