<svg width="20" height="20" viewBox="0 0 20 20" fill="none" xmlns="http://www.w3.org/2000/svg">
<path d="M15.4999 6.99996C16.163 6.99996 16.7989 7.26335 17.2677 7.73219C17.7365 8.20104 17.9999 8.83692 17.9999 9.49996V15.5C17.9999 16.163 17.7365 16.7989 17.2677 17.2677C16.7989 17.7366 16.163 18 15.4999 18H9.49994C8.8369 18 8.20101 17.7366 7.73217 17.2677C7.26333 16.7989 6.99994 16.163 6.99994 15.5V9.49996C6.99994 8.83692 7.26333 8.20104 7.73217 7.73219C8.20101 7.26335 8.8369 6.99996 9.49994 6.99996H15.4999ZM9.49994 7.99996C9.10211 7.99996 8.72058 8.158 8.43928 8.4393C8.15797 8.7206 7.99994 9.10214 7.99994 9.49996V15.5C7.99994 15.8978 8.15797 16.2793 8.43928 16.5606C8.72058 16.8419 9.10211 17 9.49994 17H15.4999C15.8978 17 16.2793 16.8419 16.5606 16.5606C16.8419 16.2793 16.9999 15.8978 16.9999 15.5V9.49996C16.9999 9.10214 16.8419 8.7206 16.5606 8.4393C16.2793 8.158 15.8978 7.99996 15.4999 7.99996H9.49994ZM10.4999 13C10.8978 13 11.2793 13.158 11.5606 13.4393C11.8419 13.7206 11.9999 14.1021 11.9999 14.5C11.9999 14.8978 11.8419 15.2793 11.5606 15.5606C11.2793 15.8419 10.8978 16 10.4999 16C10.1021 16 9.72058 15.8419 9.43928 15.5606C9.15797 15.2793 8.99994 14.8978 8.99994 14.5C8.99994 14.1021 9.15797 13.7206 9.43928 13.4393C9.72058 13.158 10.1021 13 10.4999 13ZM10.4999 14C10.3673 14 10.2402 14.0526 10.1464 14.1464C10.0526 14.2402 9.99994 14.3674 9.99994 14.5C9.99994 14.6326 10.0526 14.7597 10.1464 14.8535C10.2402 14.9473 10.3673 15 10.4999 15C10.6325 15 10.7597 14.9473 10.8535 14.8535C10.9473 14.7597 10.9999 14.6326 10.9999 14.5C10.9999 14.3674 10.9473 14.2402 10.8535 14.1464C10.7597 14.0526 10.6325 14 10.4999 14ZM15.4999 14C15.6325 14 15.7597 14.0526 15.8535 14.1464C15.9473 14.2402 15.9999 14.3674 15.9999 14.5C15.9999 14.6326 15.9473 14.7597 15.8535 14.8535C15.7597 14.9473 15.6325 15 15.4999 15H13.4999C13.3673 15 13.2402 14.9473 13.1464 14.8535C13.0526 14.7597 12.9999 14.6326 12.9999 14.5C12.9999 14.3674 13.0526 14.2402 13.1464 14.1464C13.2402 14.0526 13.3673 14 13.4999 14H15.4999ZM9.64994 2.08496C10.2903 1.91362 10.9725 2.00362 11.5465 2.33517C12.1205 2.66671 12.5394 3.21266 12.7109 3.85296L13.2859 5.99996H12.2509L11.7449 4.11196C11.6418 3.72784 11.3904 3.40039 11.0459 3.20161C10.7014 3.00284 10.2921 2.94901 9.90794 3.05196L4.11194 4.60396C3.72782 4.70707 3.40037 4.95851 3.20159 5.30299C3.00282 5.64747 2.94898 6.0568 3.05194 6.44096L4.60494 12.236C4.68798 12.546 4.8683 12.8213 5.1194 13.0213C5.3705 13.2213 5.67914 13.3354 5.99994 13.347V14.346C5.45925 14.3345 4.93687 14.1479 4.51117 13.8144C4.08548 13.4808 3.77943 13.0182 3.63894 12.496L2.08594 6.69996C2.00095 6.38282 1.97926 6.05204 2.02212 5.72652C2.06498 5.40099 2.17154 5.0871 2.33572 4.80276C2.49989 4.51842 2.71847 4.26921 2.97897 4.06935C3.23947 3.86949 3.53678 3.72291 3.85394 3.63796L9.64994 2.08496ZM10.4999 8.99996C10.8978 8.99996 11.2793 9.158 11.5606 9.4393C11.8419 9.7206 11.9999 10.1021 11.9999 10.5C11.9999 10.8978 11.8419 11.2793 11.5606 11.5606C11.2793 11.8419 10.8978 12 10.4999 12C10.1021 12 9.72058 11.8419 9.43928 11.5606C9.15797 11.2793 8.99994 10.8978 8.99994 10.5C8.99994 10.1021 9.15797 9.7206 9.43928 9.4393C9.72058 9.158 10.1021 8.99996 10.4999 8.99996ZM10.4999 9.99996C10.3673 9.99996 10.2402 10.0526 10.1464 10.1464C10.0526 10.2402 9.99994 10.3674 9.99994 10.5C9.99994 10.6326 10.0526 10.7597 10.1464 10.8535C10.2402 10.9473 10.3673 11 10.4999 11C10.6325 11 10.7597 10.9473 10.8535 10.8535C10.9473 10.7597 10.9999 10.6326 10.9999 10.5C10.9999 10.3674 10.9473 10.2402 10.8535 10.1464C10.7597 10.0526 10.6325 9.99996 10.4999 9.99996ZM15.4999 9.99996C15.6325 9.99996 15.7597 10.0526 15.8535 10.1464C15.9473 10.2402 15.9999 10.3674 15.9999 10.5C15.9999 10.6326 15.9473 10.7597 15.8535 10.8535C15.7597 10.9473 15.6325 11 15.4999 11H13.4999C13.3673 11 13.2402 10.9473 13.1464 10.8535C13.0526 10.7597 12.9999 10.6326 12.9999 10.5C12.9999 10.3674 13.0526 10.2402 13.1464 10.1464C13.2402 10.0526 13.3673 9.99996 13.4999 9.99996H15.4999Z" fill="#121315"/>
</svg>
