<svg width="16" height="16" viewBox="0 0 16 16" fill="none" xmlns="http://www.w3.org/2000/svg">
<path d="M13.5002 4.99996C14.1632 4.99996 14.7991 5.26335 15.2679 5.73219C15.7368 6.20104 16.0002 6.83692 16.0002 7.49996V13.5C16.0002 14.163 15.7368 14.7989 15.2679 15.2677C14.7991 15.7366 14.1632 16 13.5002 16H7.50018C6.83714 16 6.20126 15.7366 5.73241 15.2677C5.26357 14.7989 5.00018 14.163 5.00018 13.5V7.49996C5.00018 6.83692 5.26357 6.20104 5.73241 5.73219C6.20126 5.26335 6.83714 4.99996 7.50018 4.99996H13.5002ZM7.50018 5.99996C7.10236 5.99996 6.72083 6.158 6.43952 6.4393C6.15822 6.7206 6.00018 7.10214 6.00018 7.49996V13.5C6.00018 13.8978 6.15822 14.2793 6.43952 14.5606C6.72083 14.8419 7.10236 15 7.50018 15H13.5002C13.898 15 14.2795 14.8419 14.5608 14.5606C14.8421 14.2793 15.0002 13.8978 15.0002 13.5V7.49996C15.0002 7.10214 14.8421 6.7206 14.5608 6.4393C14.2795 6.158 13.898 5.99996 13.5002 5.99996H7.50018ZM8.50018 11C8.89801 11 9.27954 11.158 9.56084 11.4393C9.84215 11.7206 10.0002 12.1021 10.0002 12.5C10.0002 12.8978 9.84215 13.2793 9.56084 13.5606C9.27954 13.8419 8.89801 14 8.50018 14C8.10236 14 7.72083 13.8419 7.43952 13.5606C7.15822 13.2793 7.00018 12.8978 7.00018 12.5C7.00018 12.1021 7.15822 11.7206 7.43952 11.4393C7.72083 11.158 8.10236 11 8.50018 11ZM8.50018 12C8.36757 12 8.2404 12.0526 8.14663 12.1464C8.05286 12.2402 8.00018 12.3674 8.00018 12.5C8.00018 12.6326 8.05286 12.7597 8.14663 12.8535C8.2404 12.9473 8.36757 13 8.50018 13C8.63279 13 8.75997 12.9473 8.85373 12.8535C8.9475 12.7597 9.00018 12.6326 9.00018 12.5C9.00018 12.3674 8.9475 12.2402 8.85373 12.1464C8.75997 12.0526 8.63279 12 8.50018 12ZM13.5002 12C13.6328 12 13.76 12.0526 13.8537 12.1464C13.9475 12.2402 14.0002 12.3674 14.0002 12.5C14.0002 12.6326 13.9475 12.7597 13.8537 12.8535C13.76 12.9473 13.6328 13 13.5002 13H11.5002C11.3676 13 11.2404 12.9473 11.1466 12.8535C11.0529 12.7597 11.0002 12.6326 11.0002 12.5C11.0002 12.3674 11.0529 12.2402 11.1466 12.1464C11.2404 12.0526 11.3676 12 11.5002 12H13.5002ZM7.65018 0.0849608C8.29054 -0.0863782 8.97274 0.00362036 9.54675 0.335167C10.1208 0.666713 10.5396 1.21266 10.7112 1.85296L11.2862 3.99996H10.2512L9.74518 2.11196C9.64207 1.72784 9.39063 1.40039 9.04615 1.20161C8.70167 1.00284 8.29234 0.949009 7.90818 1.05196L2.11218 2.60396C1.72806 2.70707 1.40061 2.95851 1.20184 3.30299C1.00306 3.64747 0.949229 4.0568 1.05218 4.44096L2.60518 10.236C2.68822 10.546 2.86854 10.8213 3.11965 11.0213C3.37075 11.2213 3.67938 11.3354 4.00018 11.347V12.346C3.45949 12.3345 2.93711 12.1479 2.51142 11.8144C2.08572 11.4808 1.77967 11.0182 1.63918 10.496L0.086181 4.69996C0.00119299 4.38282 -0.0204915 4.05204 0.0223659 3.72652C0.0652233 3.40099 0.171783 3.0871 0.33596 2.80276C0.500137 2.51842 0.718716 2.26921 0.979214 2.06935C1.23971 1.86949 1.53703 1.72291 1.85418 1.63796L7.65018 0.0849608ZM8.50018 6.99996C8.89801 6.99996 9.27954 7.158 9.56084 7.4393C9.84215 7.7206 10.0002 8.10214 10.0002 8.49996C10.0002 8.89779 9.84215 9.27932 9.56084 9.56062C9.27954 9.84193 8.89801 9.99996 8.50018 9.99996C8.10236 9.99996 7.72083 9.84193 7.43952 9.56062C7.15822 9.27932 7.00018 8.89779 7.00018 8.49996C7.00018 8.10214 7.15822 7.7206 7.43952 7.4393C7.72083 7.158 8.10236 6.99996 8.50018 6.99996ZM8.50018 7.99996C8.36757 7.99996 8.2404 8.05264 8.14663 8.14641C8.05286 8.24018 8.00018 8.36735 8.00018 8.49996C8.00018 8.63257 8.05286 8.75975 8.14663 8.85351C8.2404 8.94728 8.36757 8.99996 8.50018 8.99996C8.63279 8.99996 8.75997 8.94728 8.85373 8.85351C8.9475 8.75975 9.00018 8.63257 9.00018 8.49996C9.00018 8.36735 8.9475 8.24018 8.85373 8.14641C8.75997 8.05264 8.63279 7.99996 8.50018 7.99996ZM13.5002 7.99996C13.6328 7.99996 13.76 8.05264 13.8537 8.14641C13.9475 8.24018 14.0002 8.36735 14.0002 8.49996C14.0002 8.63257 13.9475 8.75975 13.8537 8.85351C13.76 8.94728 13.6328 8.99996 13.5002 8.99996H11.5002C11.3676 8.99996 11.2404 8.94728 11.1466 8.85351C11.0529 8.75975 11.0002 8.63257 11.0002 8.49996C11.0002 8.36735 11.0529 8.24018 11.1466 8.14641C11.2404 8.05264 11.3676 7.99996 11.5002 7.99996H13.5002Z" fill="white" fill-opacity="0.8"/>
</svg>
