<svg width="48" height="48" viewBox="0 0 48 48" fill="none" xmlns="http://www.w3.org/2000/svg">
<rect width="48" height="48" rx="8" fill="#EFFC76" fill-opacity="0.12"/>
<path d="M31.5078 15.7809H29.2445V14.1359C29.2445 13.8326 28.9762 13.5409 28.6612 13.5526C28.3462 13.5643 28.0778 13.8093 28.0778 14.1359V15.7809H19.9112V14.1359C19.9112 13.8326 19.6428 13.5409 19.3278 13.5526C19.0128 13.5643 18.7445 13.8093 18.7445 14.1359V15.7809H16.4928C15.7193 15.7809 14.9774 16.0882 14.4304 16.6352C13.8835 17.1822 13.5762 17.924 13.5762 18.6976V31.5309C13.5762 32.3045 13.8835 33.0463 14.4304 33.5933C14.9774 34.1403 15.7193 34.4476 16.4928 34.4476H31.5078C32.2814 34.4476 33.0233 34.1403 33.5702 33.5933C34.1172 33.0463 34.4245 32.3045 34.4245 31.5309V18.6976C34.4245 17.924 34.1172 17.1822 33.5702 16.6352C33.0233 16.0882 32.2814 15.7809 31.5078 15.7809ZM33.2578 31.5309C33.2578 32.4993 32.4762 33.2809 31.5078 33.2809H16.4928C15.5245 33.2809 14.7428 32.4993 14.7428 31.5309V21.7076H33.2578V31.5309ZM33.2578 20.5409H14.7428V18.6976C14.7428 17.7293 15.5245 16.9476 16.4928 16.9476H18.7445V17.6359C18.7445 17.9393 19.0128 18.2309 19.3278 18.2193C19.6428 18.2076 19.9112 17.9626 19.9112 17.6359V16.9476H28.0778V17.6359C28.0778 17.9393 28.3462 18.2309 28.6612 18.2193C28.9762 18.2076 29.2445 17.9626 29.2445 17.6359V16.9476H31.5078C32.4762 16.9476 33.2578 17.7293 33.2578 18.6976V20.5409Z" fill="#EFFC76"/>
<path d="M23.407 30.0351V25.9984C23.407 25.9829 23.4028 25.9677 23.395 25.9543C23.3872 25.9409 23.3759 25.9298 23.3623 25.9222C23.3488 25.9146 23.3335 25.9108 23.318 25.911C23.3024 25.9113 23.2873 25.9157 23.274 25.9238L22.5297 26.3811C22.5031 26.3973 22.4728 26.4061 22.4418 26.4066C22.4107 26.4072 22.3801 26.3994 22.353 26.3842C22.3259 26.369 22.3034 26.3469 22.2877 26.3201C22.272 26.2933 22.2637 26.2628 22.2637 26.2318V25.4723C22.2637 25.3498 22.3278 25.2354 22.434 25.1724L23.3253 24.6393C23.3796 24.6066 23.4417 24.5893 23.505 24.5891H24.2353C24.2813 24.5891 24.3268 24.5982 24.3693 24.6158C24.4117 24.6333 24.4503 24.6591 24.4828 24.6916C24.5153 24.7241 24.5411 24.7627 24.5587 24.8052C24.5763 24.8476 24.5853 24.8931 24.5853 24.9391V30.0339C24.5853 30.1268 24.5485 30.2158 24.4828 30.2814C24.4172 30.3471 24.3282 30.3839 24.2353 30.3839H23.7582C23.7122 30.3841 23.6667 30.3752 23.6241 30.3577C23.5816 30.3403 23.543 30.3147 23.5103 30.2823C23.4777 30.2499 23.4518 30.2114 23.4341 30.169C23.4164 30.1266 23.4072 30.0811 23.407 30.0351Z" fill="#EFFC76"/>
</svg>
