<svg width="12" height="12" viewBox="0 0 12 12" fill="none" xmlns="http://www.w3.org/2000/svg">
<path d="M4.92899 2.57146H7.07185C7.07185 2.2873 6.95896 2.01478 6.75803 1.81385C6.5571 1.61292 6.28458 1.50003 6.00042 1.50003C5.71626 1.50003 5.44374 1.61292 5.2428 1.81385C5.04187 2.01478 4.92899 2.2873 4.92899 2.57146ZM4.28613 2.57146C4.28613 2.11681 4.46674 1.68077 4.78824 1.35928C5.10973 1.03779 5.54576 0.857178 6.00042 0.857178C6.45508 0.857178 6.89111 1.03779 7.2126 1.35928C7.53409 1.68077 7.7147 2.11681 7.7147 2.57146H10.3933C10.4785 2.57146 10.5603 2.60533 10.6206 2.66561C10.6808 2.72589 10.7147 2.80764 10.7147 2.89289C10.7147 2.97814 10.6808 3.0599 10.6206 3.12018C10.5603 3.18046 10.4785 3.21432 10.3933 3.21432H9.83185L9.31028 9.47275C9.27233 9.92803 9.06467 10.3524 8.72849 10.6618C8.3923 10.9711 7.95214 11.1429 7.49528 11.1429H4.50556C4.0487 11.1429 3.60854 10.9711 3.27235 10.6618C2.93616 10.3524 2.72851 9.92803 2.69056 9.47275L2.16899 3.21432H1.60756C1.52231 3.21432 1.44056 3.18046 1.38028 3.12018C1.32 3.0599 1.28613 2.97814 1.28613 2.89289C1.28613 2.80764 1.32 2.72589 1.38028 2.66561C1.44056 2.60533 1.52231 2.57146 1.60756 2.57146H4.28613ZM3.33128 9.41918C3.35579 9.71378 3.49011 9.98842 3.70762 10.1886C3.92513 10.3888 4.20994 10.5 4.50556 10.5H7.49528C7.7909 10.5 8.0757 10.3888 8.29321 10.1886C8.51072 9.98842 8.64505 9.71378 8.66956 9.41918L9.18728 3.21432H2.81399L3.33128 9.41918ZM5.03613 4.71432C5.12138 4.71432 5.20314 4.74818 5.26342 4.80846C5.3237 4.86874 5.35756 4.9505 5.35756 5.03575V8.67861C5.35756 8.76385 5.3237 8.84561 5.26342 8.90589C5.20314 8.96617 5.12138 9.00003 5.03613 9.00003C4.95088 9.00003 4.86913 8.96617 4.80885 8.90589C4.74857 8.84561 4.7147 8.76385 4.7147 8.67861V5.03575C4.7147 4.9505 4.74857 4.86874 4.80885 4.80846C4.86913 4.74818 4.95088 4.71432 5.03613 4.71432ZM7.28613 5.03575C7.28613 4.9505 7.25227 4.86874 7.19199 4.80846C7.13171 4.74818 7.04995 4.71432 6.9647 4.71432C6.87946 4.71432 6.7977 4.74818 6.73742 4.80846C6.67714 4.86874 6.64328 4.9505 6.64328 5.03575V8.67861C6.64328 8.76385 6.67714 8.84561 6.73742 8.90589C6.7977 8.96617 6.87946 9.00003 6.9647 9.00003C7.04995 9.00003 7.13171 8.96617 7.19199 8.90589C7.25227 8.84561 7.28613 8.76385 7.28613 8.67861V5.03575Z" fill="#EFFC76"/>
</svg>
