<svg width="24" height="24" viewBox="0 0 24 24" fill="none" xmlns="http://www.w3.org/2000/svg">
<rect width="24" height="24" rx="12" fill="#121315" fill-opacity="0.4"/>
<path d="M11.1002 8.40039H12.9002C12.9002 8.1617 12.8054 7.93278 12.6366 7.76399C12.4678 7.59521 12.2389 7.50039 12.0002 7.50039C11.7615 7.50039 11.5326 7.59521 11.3638 7.76399C11.195 7.93278 11.1002 8.1617 11.1002 8.40039ZM10.5002 8.40039C10.5002 8.00257 10.6582 7.62103 10.9395 7.33973C11.2208 7.05843 11.6024 6.90039 12.0002 6.90039C12.398 6.90039 12.7796 7.05843 13.0609 7.33973C13.3422 7.62103 13.5002 8.00257 13.5002 8.40039H16.5002C16.5798 8.40039 16.6561 8.432 16.7123 8.48826C16.7686 8.54452 16.8002 8.62083 16.8002 8.70039C16.8002 8.77996 16.7686 8.85626 16.7123 8.91252C16.6561 8.96878 16.5798 9.00039 16.5002 9.00039H15.8678L15.1514 15.2068C15.1008 15.6455 14.8906 16.0503 14.5609 16.3441C14.2312 16.638 13.805 16.8004 13.3634 16.8004H10.637C10.1954 16.8004 9.76916 16.638 9.43948 16.3441C9.10979 16.0503 8.89964 15.6455 8.849 15.2068L8.1326 9.00039H7.5002C7.42063 9.00039 7.34432 8.96878 7.28806 8.91252C7.2318 8.85626 7.2002 8.77996 7.2002 8.70039C7.2002 8.62083 7.2318 8.54452 7.28806 8.48826C7.34432 8.432 7.42063 8.40039 7.5002 8.40039H10.5002ZM9.4448 15.1384C9.47865 15.4308 9.61882 15.7006 9.83865 15.8964C10.0585 16.0923 10.3426 16.2004 10.637 16.2004H13.3634C13.6578 16.2004 13.9419 16.0923 14.1617 15.8964C14.3816 15.7006 14.5217 15.4308 14.5556 15.1384L15.2636 9.00039H8.7368L9.4448 15.1384ZM11.1002 10.5004C11.1798 10.5004 11.2561 10.532 11.3123 10.5883C11.3686 10.6445 11.4002 10.7208 11.4002 10.8004V14.4004C11.4002 14.48 11.3686 14.5563 11.3123 14.6125C11.2561 14.6688 11.1798 14.7004 11.1002 14.7004C11.0206 14.7004 10.9443 14.6688 10.8881 14.6125C10.8318 14.5563 10.8002 14.48 10.8002 14.4004V10.8004C10.8002 10.7208 10.8318 10.6445 10.8881 10.5883C10.9443 10.532 11.0206 10.5004 11.1002 10.5004ZM13.2002 10.8004C13.2002 10.7208 13.1686 10.6445 13.1123 10.5883C13.0561 10.532 12.9798 10.5004 12.9002 10.5004C12.8206 10.5004 12.7443 10.532 12.6881 10.5883C12.6318 10.6445 12.6002 10.7208 12.6002 10.8004V14.4004C12.6002 14.48 12.6318 14.5563 12.6881 14.6125C12.7443 14.6688 12.8206 14.7004 12.9002 14.7004C12.9798 14.7004 13.0561 14.6688 13.1123 14.6125C13.1686 14.5563 13.2002 14.48 13.2002 14.4004V10.8004Z" fill="white"/>
</svg>
