<svg width="12" height="12" viewBox="0 0 12 12" fill="none" xmlns="http://www.w3.org/2000/svg">
<path d="M6.27135 7.96473L10.2539 3.78498C10.3203 3.71524 10.3574 3.62258 10.3574 3.52623C10.3574 3.42988 10.3203 3.33722 10.2539 3.26748L10.2494 3.26298C10.2171 3.22905 10.1783 3.20204 10.1353 3.18358C10.0923 3.16512 10.046 3.1556 9.99923 3.1556C9.95243 3.1556 9.90612 3.16512 9.86312 3.18358C9.82013 3.20204 9.78133 3.22905 9.7491 3.26298L5.9991 7.19898L2.2506 3.26298C2.21837 3.22905 2.17957 3.20204 2.13657 3.18358C2.09358 3.16512 2.04727 3.1556 2.00047 3.1556C1.95368 3.1556 1.90737 3.16512 1.86437 3.18358C1.82137 3.20204 1.78258 3.22905 1.75035 3.26298L1.74585 3.26748C1.67937 3.33722 1.64228 3.42988 1.64228 3.52623C1.64228 3.62258 1.67937 3.71524 1.74585 3.78498L5.72835 7.96473C5.76337 8.00149 5.8055 8.03075 5.85216 8.05075C5.89883 8.07074 5.94908 8.08105 5.99985 8.08105C6.05062 8.08105 6.10087 8.07074 6.14754 8.05075C6.1942 8.03075 6.23633 8.00149 6.27135 7.96473Z" fill="white" fill-opacity="0.6"/>
</svg>
