<svg width="16" height="16" viewBox="0 0 16 16" fill="none" xmlns="http://www.w3.org/2000/svg">
<path d="M5.32457 3.00217L10.1966 8.00017L5.32457 12.9982C5.23734 13.0875 5.1885 13.2073 5.1885 13.3322C5.1885 13.457 5.23734 13.5769 5.32457 13.6662C5.36693 13.7094 5.4175 13.7438 5.4733 13.7672C5.52911 13.7907 5.58903 13.8027 5.64957 13.8027C5.7101 13.8027 5.77002 13.7907 5.82583 13.7672C5.88163 13.7438 5.9322 13.7094 5.97457 13.6662L11.1586 8.34917C11.2496 8.25579 11.3005 8.13056 11.3005 8.00017C11.3005 7.86978 11.2496 7.74454 11.1586 7.65117L5.97557 2.33417C5.93317 2.29062 5.88248 2.25601 5.82649 2.23238C5.7705 2.20875 5.71034 2.19658 5.64957 2.19658C5.58879 2.19658 5.52863 2.20875 5.47264 2.23238C5.41665 2.25601 5.36596 2.29062 5.32357 2.33417C5.23634 2.42346 5.1875 2.54334 5.1875 2.66817C5.1875 2.793 5.23634 2.91287 5.32357 3.00217H5.32457Z" fill="white" fill-opacity="0.6"/>
</svg>
