<svg width="14" height="12" viewBox="0 0 14 12" fill="none" xmlns="http://www.w3.org/2000/svg">
<path d="M0.646893 5.64586L5.64689 0.645856C5.74078 0.551969 5.86812 0.499225 6.00089 0.499225C6.13367 0.499225 6.26101 0.551969 6.35489 0.645856C6.44878 0.739742 6.50152 0.86708 6.50152 0.999856C6.50152 1.13263 6.44878 1.25997 6.35489 1.35386L2.20789 5.49986L13.0009 5.49986C13.1335 5.49986 13.2607 5.55253 13.3544 5.6463C13.4482 5.74007 13.5009 5.86725 13.5009 5.99986C13.5009 6.13246 13.4482 6.25964 13.3544 6.35341C13.2607 6.44718 13.1335 6.49986 13.0009 6.49986L2.20789 6.49986L6.35489 10.6459C6.44878 10.7397 6.50152 10.8671 6.50152 10.9999C6.50152 11.1326 6.44878 11.26 6.35489 11.3539C6.26101 11.4477 6.13367 11.5005 6.00089 11.5005C5.86812 11.5005 5.74078 11.4477 5.64689 11.3539L0.646893 6.35386C0.60033 6.30741 0.563387 6.25223 0.538181 6.19149C0.512974 6.13074 0.5 6.06562 0.5 5.99986C0.5 5.93409 0.512974 5.86897 0.538181 5.80822C0.563387 5.74748 0.60033 5.6923 0.646893 5.64586Z" fill="white" fill-opacity="0.6"/>
</svg>
