<svg width="20" height="20" viewBox="0 0 20 20" fill="none" xmlns="http://www.w3.org/2000/svg">
<path d="M10.0003 1.66699C13.9124 1.66699 17.0837 4.83824 17.0837 8.75033C17.0866 10.4213 16.4959 12.039 15.417 13.3149L15.4078 13.3257L15.4012 13.3337H15.417L11.2133 17.7957C11.0574 17.9611 10.8695 18.0928 10.6609 18.1828C10.4523 18.2729 10.2275 18.3193 10.0003 18.3193C9.77315 18.3193 9.54836 18.2729 9.33978 18.1828C9.1312 18.0928 8.94323 17.9611 8.78742 17.7957L4.58367 13.3337H4.5995L4.59242 13.3253L4.58367 13.3149C3.50473 12.039 2.91406 10.4213 2.917 8.75033C2.917 4.83824 6.08825 1.66699 10.0003 1.66699ZM10.0003 2.70866C6.66367 2.70866 3.95867 5.41366 3.95867 8.75033C3.95867 10.242 4.49784 11.6053 5.39325 12.6595L5.52159 12.8103L9.54534 17.0816C9.60377 17.1436 9.67428 17.1931 9.75252 17.2269C9.83077 17.2607 9.9151 17.2781 10.0003 17.2781C10.0856 17.2781 10.1699 17.2607 10.2481 17.2269C10.3264 17.1931 10.3969 17.1436 10.4553 17.0816L14.4791 12.8107L14.6074 12.6595C15.536 11.5689 16.0447 10.1827 16.042 8.75033C16.042 5.41366 13.337 2.70866 10.0003 2.70866ZM10.0003 5.83366C10.7739 5.83366 11.5157 6.14095 12.0627 6.68793C12.6097 7.23491 12.917 7.97678 12.917 8.75033C12.917 9.52387 12.6097 10.2657 12.0627 10.8127C11.5157 11.3597 10.7739 11.667 10.0003 11.667C9.22679 11.667 8.48492 11.3597 7.93794 10.8127C7.39096 10.2657 7.08367 9.52387 7.08367 8.75033C7.08367 7.97678 7.39096 7.23491 7.93794 6.68793C8.48492 6.14095 9.22679 5.83366 10.0003 5.83366ZM10.0003 6.87533C9.75411 6.87533 9.51029 6.92382 9.2828 7.01805C9.05532 7.11228 8.84862 7.25039 8.67451 7.4245C8.5004 7.59861 8.36229 7.80531 8.26806 8.03279C8.17383 8.26028 8.12534 8.5041 8.12534 8.75033C8.12534 8.99655 8.17383 9.24037 8.26806 9.46786C8.36229 9.69534 8.5004 9.90204 8.67451 10.0761C8.84862 10.2503 9.05532 10.3884 9.2828 10.4826C9.51029 10.5768 9.75411 10.6253 10.0003 10.6253C10.4976 10.6253 10.9745 10.4278 11.3262 10.0761C11.6778 9.72452 11.8753 9.24761 11.8753 8.75033C11.8753 8.25304 11.6778 7.77613 11.3262 7.4245C10.9745 7.07287 10.4976 6.87533 10.0003 6.87533Z" fill="white" fill-opacity="0.6"/>
</svg>
