<svg width="49" height="48" viewBox="0 0 49 48" fill="none" xmlns="http://www.w3.org/2000/svg">
<rect x="0.5" width="48" height="48" rx="8" fill="#EFFC76" fill-opacity="0.12"/>
<path d="M15.166 18.1667C15.166 15.9663 15.166 14.8673 15.8497 14.1837C16.5333 13.5 17.6323 13.5 19.8327 13.5H29.166C31.3664 13.5 32.4653 13.5 33.149 14.1837C33.8327 14.8673 33.8327 15.9663 33.8327 18.1667V27.5C33.8327 30.7993 33.8327 32.4502 32.8072 33.4745C31.7829 34.5 30.132 34.5 26.8327 34.5H22.166C18.8667 34.5 17.2158 34.5 16.1915 33.4745C15.166 32.4502 15.166 30.7993 15.166 27.5V18.1667Z" stroke="#EFFC76"/>
<path d="M28 31.0002V34.5002M21 31.0002V34.5002M21 19.3335H28M21 24.0002H28" stroke="#EFFC76" stroke-linecap="round"/>
</svg>
