<svg width="16" height="17" viewBox="0 0 16 17" fill="none" xmlns="http://www.w3.org/2000/svg">
<path d="M11.232 0.988947C11.0447 1.38374 10.9474 1.81525 10.9474 2.25224H2.31579C1.73474 2.25224 1.26316 2.72387 1.26316 3.30498V13.8324C1.26316 14.4135 1.73474 14.8851 2.31579 14.8851H12.8421C13.4232 14.8851 13.8947 14.4135 13.8947 13.8324V5.2016C14.3469 5.2016 14.7756 5.0997 15.1587 4.91778L15.1579 13.8324C15.1579 14.4467 14.9139 15.0357 14.4796 15.4701C14.0453 15.9044 13.4563 16.1484 12.8421 16.1484H2.31579C1.7016 16.1484 1.11257 15.9044 0.678279 15.4701C0.243984 15.0357 0 14.4467 0 13.8324V3.30498C0 2.69073 0.243984 2.10164 0.678279 1.6673C1.11257 1.23296 1.7016 0.988947 2.31579 0.988947H11.232ZM13.8947 0.148438C14.4531 0.148438 14.9886 0.370265 15.3834 0.76512C15.7782 1.15997 16 1.69551 16 2.25392C16 2.81233 15.7782 3.34787 15.3834 3.74273C14.9886 4.13758 14.4531 4.35941 13.8947 4.35941C13.3364 4.35941 12.8009 4.13758 12.4061 3.74273C12.0113 3.34787 11.7895 2.81233 11.7895 2.25392C11.7895 1.69551 12.0113 1.15997 12.4061 0.76512C12.8009 0.370265 13.3364 0.148438 13.8947 0.148438Z" fill="#EFFC76"/>
</svg>
