<svg width="49" height="48" viewBox="0 0 49 48" fill="none" xmlns="http://www.w3.org/2000/svg">
<rect x="0.5" width="48" height="48" rx="8" fill="#EFFC76" fill-opacity="0.12"/>
<path d="M22.1665 34.2399C21.1514 34.0086 20.1763 33.6276 19.2732 33.1094M26.8332 13.7603C29.1527 14.29 31.2237 15.5916 32.707 17.4518C34.1903 19.3121 34.998 21.6208 34.998 24.0001C34.998 26.3793 34.1903 28.6881 32.707 30.5483C31.2237 32.4086 29.1527 33.7102 26.8332 34.2399M15.842 29.9419C15.2063 29.0169 14.723 27.996 14.4105 26.9179M14.1445 22.2501C14.3312 21.1418 14.6905 20.0918 15.1945 19.1293L15.3917 18.7734M18.558 15.3423C19.6503 14.5919 20.8746 14.0552 22.1665 13.7603" stroke="#EFFC76" stroke-width="2" stroke-linecap="round" stroke-linejoin="round"/>
</svg>
