<svg width="18" height="14" viewBox="0 0 18 14" fill="none" xmlns="http://www.w3.org/2000/svg">
<path d="M0.666992 3.35417C0.666992 2.6635 0.941359 2.00112 1.42973 1.51274C1.91811 1.02437 2.58049 0.75 3.27116 0.75H14.7295C15.4202 0.75 16.0825 1.02437 16.5709 1.51274C17.0593 2.00112 17.3337 2.6635 17.3337 3.35417V10.6458C17.3337 11.3365 17.0593 11.9989 16.5709 12.4873C16.0825 12.9756 15.4202 13.25 14.7295 13.25H3.27116C2.58049 13.25 1.91811 12.9756 1.42973 12.4873C0.941359 11.9989 0.666992 11.3365 0.666992 10.6458V3.35417ZM3.27116 1.79167C2.85676 1.79167 2.45933 1.95629 2.1663 2.24931C1.87328 2.54234 1.70866 2.93977 1.70866 3.35417V4.70833H16.292V3.35417C16.292 2.93977 16.1274 2.54234 15.8343 2.24931C15.5413 1.95629 15.1439 1.79167 14.7295 1.79167H3.27116ZM1.70866 10.6458C1.70866 11.0602 1.87328 11.4577 2.1663 11.7507C2.45933 12.0437 2.85676 12.2083 3.27116 12.2083H14.7295C15.1439 12.2083 15.5413 12.0437 15.8343 11.7507C16.1274 11.4577 16.292 11.0602 16.292 10.6458V5.75H1.70866V10.6458ZM12.0212 9.29167C11.883 9.29167 11.7505 9.34654 11.6529 9.44421C11.5552 9.54189 11.5003 9.67437 11.5003 9.8125C11.5003 9.95063 11.5552 10.0831 11.6529 10.1808C11.7505 10.2785 11.883 10.3333 12.0212 10.3333H14.3128C14.451 10.3333 14.5834 10.2785 14.6811 10.1808C14.7788 10.0831 14.8337 9.95063 14.8337 9.8125C14.8337 9.67437 14.7788 9.54189 14.6811 9.44421C14.5834 9.34654 14.451 9.29167 14.3128 9.29167H12.0212Z" fill="white" fill-opacity="0.8"/>
</svg>
