<svg width="18" height="14" viewBox="0 0 18 14" fill="none" xmlns="http://www.w3.org/2000/svg">
<path d="M0.666504 3.35417C0.666504 2.6635 0.940871 2.00112 1.42925 1.51274C1.91762 1.02437 2.58 0.75 3.27067 0.75H14.729C15.4197 0.75 16.0821 1.02437 16.5704 1.51274C17.0588 2.00112 17.3332 2.6635 17.3332 3.35417V10.6458C17.3332 11.3365 17.0588 11.9989 16.5704 12.4873C16.0821 12.9756 15.4197 13.25 14.729 13.25H3.27067C2.58 13.25 1.91762 12.9756 1.42925 12.4873C0.940871 11.9989 0.666504 11.3365 0.666504 10.6458V3.35417ZM3.27067 1.79167C2.85627 1.79167 2.45884 1.95629 2.16582 2.24931C1.87279 2.54234 1.70817 2.93977 1.70817 3.35417V4.70833H16.2915V3.35417C16.2915 2.93977 16.1269 2.54234 15.8339 2.24931C15.5408 1.95629 15.1434 1.79167 14.729 1.79167H3.27067ZM1.70817 10.6458C1.70817 11.0602 1.87279 11.4577 2.16582 11.7507C2.45884 12.0437 2.85627 12.2083 3.27067 12.2083H14.729C15.1434 12.2083 15.5408 12.0437 15.8339 11.7507C16.1269 11.4577 16.2915 11.0602 16.2915 10.6458V5.75H1.70817V10.6458ZM12.0207 9.29167C11.8825 9.29167 11.7501 9.34654 11.6524 9.44421C11.5547 9.54189 11.4998 9.67437 11.4998 9.8125C11.4998 9.95063 11.5547 10.0831 11.6524 10.1808C11.7501 10.2785 11.8825 10.3333 12.0207 10.3333H14.3123C14.4505 10.3333 14.5829 10.2785 14.6806 10.1808C14.7783 10.0831 14.8332 9.95063 14.8332 9.8125C14.8332 9.67437 14.7783 9.54189 14.6806 9.44421C14.5829 9.34654 14.4505 9.29167 14.3123 9.29167H12.0207Z" fill="#121315"/>
</svg>
