<svg width="49" height="48" viewBox="0 0 49 48" fill="none" xmlns="http://www.w3.org/2000/svg">
<rect x="0.5" width="48" height="48" rx="8" fill="#EFFC76" fill-opacity="0.12"/>
<path d="M25.375 18.1667C25.375 17.9347 25.2828 17.7121 25.1187 17.548C24.9546 17.3839 24.7321 17.2917 24.5 17.2917C24.2679 17.2917 24.0454 17.3839 23.8813 17.548C23.7172 17.7121 23.625 17.9347 23.625 18.1667V24.0001C23.6249 24.1484 23.6626 24.2944 23.7344 24.4242C23.8063 24.554 23.9099 24.6634 24.0357 24.7421L27.5357 26.9296C27.7325 27.0527 27.9701 27.0927 28.1963 27.0406C28.3084 27.0148 28.4142 26.9672 28.5078 26.9005C28.6015 26.8338 28.681 26.7494 28.742 26.6519C28.803 26.5545 28.8442 26.446 28.8632 26.3326C28.8823 26.2193 28.8788 26.1033 28.853 25.9912C28.8272 25.8792 28.7796 25.7734 28.7129 25.6798C28.6463 25.5861 28.5618 25.5066 28.4643 25.4456L25.375 23.5147V18.1667Z" fill="#EFFC76"/>
<path fill-rule="evenodd" clip-rule="evenodd" d="M25 13C22.0826 13 19.2847 14.1589 17.2218 16.2218C15.1589 18.2847 14 21.0826 14 24C14 26.9174 15.1589 29.7153 17.2218 31.7782C19.2847 33.8411 22.0826 35 25 35C27.9174 35 30.7153 33.8411 32.7782 31.7782C34.8411 29.7153 36 26.9174 36 24C36 21.0826 34.8411 18.2847 32.7782 16.2218C30.7153 14.1589 27.9174 13 25 13ZM15.8857 24C15.8857 22.8031 16.1215 21.6179 16.5795 20.5121C17.0375 19.4063 17.7089 18.4016 18.5552 17.5552C19.4016 16.7089 20.4063 16.0375 21.5121 15.5795C22.6179 15.1215 23.8031 14.8857 25 14.8857C26.1969 14.8857 27.3821 15.1215 28.4879 15.5795C29.5937 16.0375 30.5984 16.7089 31.4448 17.5552C32.2911 18.4016 32.9625 19.4063 33.4205 20.5121C33.8785 21.6179 34.1143 22.8031 34.1143 24C34.1143 26.4173 33.154 28.7355 31.4448 30.4448C29.7355 32.154 27.4173 33.1143 25 33.1143C22.5827 33.1143 20.2645 32.154 18.5552 30.4448C16.846 28.7355 15.8857 26.4173 15.8857 24Z" fill="#EFFC76"/>
</svg>
