<svg width="48" height="48" viewBox="0 0 48 48" fill="none" xmlns="http://www.w3.org/2000/svg">
<rect width="48" height="48" rx="8" fill="#EFFC76" fill-opacity="0.12"/>
<path d="M27.9192 17.9112C27.9192 16.0629 27.9192 15.1398 27.3449 14.5655C26.7707 13.9912 25.8475 13.9912 23.9992 13.9912C22.1509 13.9912 21.2278 13.9912 20.6535 14.5655C20.0792 15.1398 20.0792 16.0629 20.0792 17.9112M14.1992 25.7512C14.1992 22.0556 14.1992 20.2074 15.3478 19.0598C16.4963 17.9122 18.3436 17.9112 22.0392 17.9112H25.9592C29.6548 17.9112 31.5031 17.9112 32.6507 19.0598C33.7982 20.2083 33.7992 22.0556 33.7992 25.7512C33.7992 29.4468 33.7992 31.2951 32.6507 32.4427C31.5021 33.5902 29.6548 33.5912 25.9592 33.5912H22.0392C18.3436 33.5912 16.4954 33.5912 15.3478 32.4427C14.2002 31.2941 14.1992 29.4468 14.1992 25.7512Z" stroke="#EFFC76"/>
<path d="M23.9991 29.0174C25.082 29.0174 25.9591 28.2863 25.9591 27.3847C25.9591 26.4831 25.082 25.7511 23.9991 25.7511C22.9162 25.7511 22.0391 25.02 22.0391 24.1174C22.0391 23.2158 22.9162 22.4847 23.9991 22.4847M23.9991 29.0174C22.9162 29.0174 22.0391 28.2863 22.0391 27.3847M23.9991 29.0174V29.6711M23.9991 22.4847V21.8311M23.9991 22.4847C25.082 22.4847 25.9591 23.2158 25.9591 24.1174" stroke="#EFFC76" stroke-linecap="round"/>
</svg>
