<svg width="49" height="48" viewBox="0 0 49 48" fill="none" xmlns="http://www.w3.org/2000/svg">
<rect x="0.5" width="48" height="48" rx="8" fill="#EFFC76" fill-opacity="0.12"/>
<path d="M29.1667 33.333L28.7537 33.746L29.1667 34.1578L29.5797 33.746L29.1667 33.333ZM15.75 27.4997C15.75 27.6544 15.8115 27.8028 15.9209 27.9122C16.0303 28.0215 16.1786 28.083 16.3333 28.083C16.488 28.083 16.6364 28.0215 16.7458 27.9122C16.8552 27.8028 16.9167 27.6544 16.9167 27.4997H15.75ZM22.9203 27.9127L28.7537 33.746L29.5797 32.92L23.7463 27.0867L22.9203 27.9127ZM29.5797 33.746L35.413 27.9127L34.587 27.0867L28.7537 32.92L29.5797 33.746ZM29.75 33.333V21.083H28.5833V33.333H29.75ZM15.75 21.083V27.4997H16.9167V21.083H15.75ZM22.75 14.083C20.8935 14.083 19.113 14.8205 17.8003 16.1333C16.4875 17.446 15.75 19.2265 15.75 21.083H16.9167C16.9167 19.5359 17.5312 18.0522 18.6252 16.9582C19.7192 15.8643 21.2029 15.2497 22.75 15.2497V14.083ZM29.75 21.083C29.75 19.2265 29.0125 17.446 27.6997 16.1333C26.387 14.8205 24.6065 14.083 22.75 14.083V15.2497C24.2971 15.2497 25.7808 15.8643 26.8748 16.9582C27.9688 18.0522 28.5833 19.5359 28.5833 21.083H29.75Z" fill="#EFFC76"/>
</svg>
