<svg width="48" height="48" viewBox="0 0 48 48" fill="none" xmlns="http://www.w3.org/2000/svg">
<rect width="48" height="48" rx="8" fill="#EFFC76" fill-opacity="0.12"/>
<g clip-path="url(#clip0_412_22578)">
<path d="M17.0007 35.6668V14.6668C17.0007 14.048 17.2465 13.4545 17.6841 13.0169C18.1217 12.5793 18.7151 12.3335 19.334 12.3335H28.6673C29.2862 12.3335 29.8796 12.5793 30.3172 13.0169C30.7548 13.4545 31.0007 14.048 31.0007 14.6668V35.6668M17.0007 35.6668H31.0007M17.0007 35.6668H14.6673C14.0485 35.6668 13.455 35.421 13.0174 34.9834C12.5798 34.5458 12.334 33.9523 12.334 33.3335V26.3335C12.334 25.7147 12.5798 25.1212 13.0174 24.6836C13.455 24.246 14.0485 24.0002 14.6673 24.0002H17.0007M31.0007 35.6668H33.334C33.9528 35.6668 34.5463 35.421 34.9839 34.9834C35.4215 34.5458 35.6673 33.9523 35.6673 33.3335V22.8335C35.6673 22.2147 35.4215 21.6212 34.9839 21.1836C34.5463 20.746 33.9528 20.5002 33.334 20.5002H31.0007M21.6673 17.0002H26.334M21.6673 21.6668H26.334M21.6673 26.3335H26.334M21.6673 31.0002H26.334" stroke="#EFFC76" stroke-width="1.5" stroke-linecap="round" stroke-linejoin="round"/>
<rect x="23" y="23" width="16" height="16" rx="8" fill="#2D2F21"/>
<path d="M28.5 28L31.5 31M31.5 31L34.5 34M31.5 31L28.5 34M31.5 31L34.5 28" stroke="#EFFC76" stroke-linecap="round"/>
</g>
<defs>
<clipPath id="clip0_412_22578">
<rect width="28" height="28" fill="white" transform="translate(10 10)"/>
</clipPath>
</defs>
</svg>
