<svg width="49" height="48" viewBox="0 0 49 48" fill="none" xmlns="http://www.w3.org/2000/svg">
<rect x="0.5" width="48" height="48" rx="8" fill="#EFFC76" fill-opacity="0.12"/>
<path d="M24 34C19.993 34 17.99 34 16.745 32.535C15.5 31.072 15.5 28.714 15.5 24C15.5 19.286 15.5 16.929 16.745 15.464C17.99 13.999 19.993 14 24 14C28.007 14 30.01 14 31.255 15.464C32.257 16.644 32.453 18.401 32.491 21.5M20.5 20H27.5M20.5 25H23.5" stroke="#EFFC76" stroke-width="1.5" stroke-linecap="round" stroke-linejoin="round"/>
<path d="M27 26L30.5 29.5M30.5 29.5L34 33M30.5 29.5L27 33M30.5 29.5L34 26" stroke="#EFFC76" stroke-width="1.75" stroke-linecap="round"/>
</svg>
