<svg width="14" height="12" viewBox="0 0 14 12" fill="none" xmlns="http://www.w3.org/2000/svg">
<path d="M13.3531 6.35414L8.35311 11.3541C8.25922 11.448 8.13188 11.5008 7.99911 11.5008C7.86633 11.5008 7.73899 11.448 7.64511 11.3541C7.55122 11.2603 7.49848 11.1329 7.49848 11.0001C7.49848 10.8674 7.55122 10.74 7.64511 10.6461L11.7921 6.50014L0.999107 6.50014C0.866499 6.50014 0.739322 6.44747 0.645554 6.3537C0.551785 6.25993 0.499107 6.13275 0.499107 6.00014C0.499107 5.86754 0.551785 5.74036 0.645554 5.64659C0.739322 5.55282 0.866499 5.50014 0.999107 5.50014L11.7921 5.50014L7.64511 1.35414C7.55122 1.26026 7.49848 1.13292 7.49848 1.00014C7.49848 0.867368 7.55122 0.74003 7.64511 0.646143C7.73899 0.552257 7.86633 0.499512 7.99911 0.499512C8.13188 0.499512 8.25922 0.552257 8.35311 0.646143L13.3531 5.64614C13.3997 5.69259 13.4366 5.74777 13.4618 5.80851C13.487 5.86926 13.5 5.93438 13.5 6.00014C13.5 6.06591 13.487 6.13103 13.4618 6.19178C13.4366 6.25252 13.3997 6.3077 13.3531 6.35414Z" fill="white" fill-opacity="0.6"/>
</svg>
