<svg width="20" height="20" viewBox="0 0 20 20" fill="none" xmlns="http://www.w3.org/2000/svg">
<path d="M3.16345 11.4766C2.72087 10.6818 2.5 10.2835 2.5 9.84932C2.5 9.4151 2.72087 9.0177 3.16345 8.22289L4.29124 6.19321L5.48428 4.20118C5.95196 3.4206 6.18539 3.02989 6.56104 2.81236C6.93752 2.59567 7.39182 2.58898 8.30124 2.57392L10.6246 2.53711L12.9462 2.57392C13.8565 2.58898 14.3108 2.59567 14.6865 2.8132C15.0621 3.03073 15.2972 3.4206 15.764 4.20118L16.9579 6.19321L18.0874 8.22289C18.5291 9.0177 18.75 9.4151 18.75 9.84932C18.75 10.2835 18.5291 10.6809 18.0865 11.4757L16.9579 13.5054L15.7649 15.4975C15.2972 16.278 15.0638 16.6687 14.6881 16.8863C14.3116 17.103 13.8573 17.1097 12.9479 17.1247L10.6246 17.1615L8.30291 17.1247C7.39265 17.1097 6.93836 17.103 6.56271 16.8854C6.18706 16.6679 5.95196 16.278 5.48512 15.4975L4.29124 13.5054L3.16345 11.4766Z" stroke="#EFFC76" stroke-width="1.2"/>
<path d="M10.6242 12.3245C12.0104 12.3245 13.1341 11.2008 13.1341 9.8146C13.1341 8.42841 12.0104 7.30469 10.6242 7.30469C9.23798 7.30469 8.11426 8.42841 8.11426 9.8146C8.11426 11.2008 9.23798 12.3245 10.6242 12.3245Z" stroke="#EFFC76" stroke-width="1.2"/>
</svg>
