<svg width="18" height="18" viewBox="0 0 18 18" fill="none" xmlns="http://www.w3.org/2000/svg">
<path d="M7.36003 4.56295C7.68294 5.4379 6.52646 6.09497 5.91877 5.38215L3.77854 2.87108L5.91761 5.38329C6.52531 6.09611 5.66691 7.10361 4.84836 6.63826L1.96527 4.99986L4.84779 6.6394C5.66633 7.10475 5.2094 8.34094 4.27879 8.17938L1 7.61049L4.27821 8.18052C5.20882 8.34208 5.20882 9.65735 4.27821 9.81892L1 10.3889L4.27879 9.82005C5.2094 9.65849 5.66633 10.8947 4.84779 11.36L1.96527 12.9996L4.84836 11.3612C5.66691 10.8958 6.52531 11.9033 5.91761 12.6161L3.77854 15.1284L5.91877 12.6173C6.52646 11.9045 7.68294 12.5615 7.36003 13.4365L6.22146 16.517L7.3606 13.437C7.68409 12.5621 8.99942 12.7908 8.99942 13.7215L9 17L9.00058 13.7215C9.00058 12.7908 10.3159 12.5621 10.6394 13.4365L11.7785 16.517L10.6406 13.4365C10.3171 12.5615 11.4741 11.9045 12.0812 12.6173L14.2215 15.1284L12.0824 12.6161C11.4747 11.9033 12.3331 10.8958 13.1516 11.3612L16.0353 12.9996L13.1522 11.36C12.3342 10.8947 12.7906 9.65849 13.7218 9.82005L17 10.3889L13.7218 9.81892C12.7912 9.65735 12.7912 8.34208 13.7218 8.18052L17 7.61049L13.7218 8.17938C12.7906 8.34094 12.3342 7.10475 13.1522 6.6394L16.0353 4.99986L13.1516 6.63826C12.3331 7.10361 11.4747 6.09611 12.0824 5.38329L14.2215 2.87108L12.0812 5.38215C11.4741 6.09497 10.3171 5.4379 10.6406 4.56295L11.7785 1.48242L10.6394 4.56295C10.3159 5.43733 9.00058 5.20864 9.00058 4.27794L9 1L8.99942 4.27794C8.99942 5.20864 7.68351 5.43733 7.36003 4.56295ZM7.36003 4.56295L6.22146 1.48242" stroke="#EFFC76" stroke-width="1.5" stroke-linecap="round" stroke-linejoin="round"/>
</svg>
