<svg width="49" height="48" viewBox="0 0 49 48" fill="none" xmlns="http://www.w3.org/2000/svg">
<rect x="0.5" width="48" height="48" rx="8" fill="#EFFC76" fill-opacity="0.12"/>
<path d="M12.834 23.9997C12.834 18.5 12.834 15.7502 14.542 14.041C16.2523 12.333 19.001 12.333 24.5007 12.333C30.0003 12.333 32.7502 12.333 34.4582 14.041C36.1673 15.7513 36.1673 18.5 36.1673 23.9997C36.1673 29.4993 36.1673 32.2492 34.4582 33.9572C32.7513 35.6663 30.0003 35.6663 24.5007 35.6663C19.001 35.6663 16.2512 35.6663 14.542 33.9572C12.834 32.2503 12.834 29.4993 12.834 23.9997Z" stroke="#EFFC76" stroke-width="1.25"/>
<path d="M18.668 26.3327L21.3431 23.6575C21.5619 23.4388 21.8586 23.3159 22.168 23.3159C22.4773 23.3159 22.774 23.4388 22.9928 23.6575L24.8431 25.5078C25.0619 25.7266 25.3586 25.8494 25.668 25.8494C25.9773 25.8494 26.274 25.7266 26.4928 25.5078L30.3346 21.666M30.3346 21.666V24.5827M30.3346 21.666H27.418" stroke="#EFFC76" stroke-width="1.25" stroke-linecap="round" stroke-linejoin="round"/>
</svg>
