<svg width="9" height="7" viewBox="0 0 9 7" fill="none" xmlns="http://www.w3.org/2000/svg">
<path d="M8.20223 1.00948C8.32161 1.11442 8.39448 1.26245 8.40483 1.42106C8.41518 1.57968 8.36216 1.73592 8.25743 1.85548L4.05743 6.65548C4.00339 6.7174 3.9372 6.76755 3.86298 6.80283C3.78875 6.83811 3.70807 6.85776 3.62594 6.86058C3.5438 6.86339 3.46197 6.8493 3.3855 6.81918C3.30904 6.78906 3.23958 6.74355 3.18143 6.68548L0.781426 4.28548C0.725641 4.2297 0.681389 4.16347 0.651198 4.09058C0.621007 4.01769 0.605469 3.93957 0.605469 3.86068C0.605469 3.78179 0.621007 3.70367 0.651198 3.63078C0.681389 3.55789 0.725641 3.49167 0.781426 3.43588C0.837212 3.38009 0.903439 3.33584 0.976326 3.30565C1.04921 3.27546 1.12733 3.25992 1.20623 3.25992C1.28512 3.25992 1.36324 3.27546 1.43613 3.30565C1.50901 3.33584 1.57524 3.38009 1.63103 3.43588L3.57743 5.38228L7.35503 1.06588C7.4598 0.946323 7.60774 0.873233 7.76636 0.862658C7.92498 0.852084 8.08251 0.904889 8.20223 1.00948Z" fill="#141414"/>
</svg>
