<svg width="41" height="40" viewBox="0 0 41 40" fill="none" xmlns="http://www.w3.org/2000/svg">
<g clip-path="url(#clip0_333_22020)">
<path d="M28 12.5C27.775 12.5 27.575 12.5 27.35 12.525C26.5822 10.326 25.1494 8.42023 23.2502 7.07192C21.3509 5.72361 19.0792 4.99952 16.75 5C10.55 5 5.5 10.05 5.5 16.25C5.5 17.05 5.6 17.85 5.8 18.7C2.55 20.425 0.5 23.75 0.5 27.5C0.5 33.025 4.975 37.5 10.5 37.5H20.5V24.7L16.6 28.6C16 29.2 15 29.2 14.4 28.6C13.8 28 13.8 27 14.4 26.4L19.75 21.025C20.85 19.925 22.625 19.925 23.725 21.025L29.1 26.4C29.7 27 29.7 28 29.1 28.6C28.8 28.9 28.4 29.05 28 29.05C27.6 29.05 27.2 28.9 26.9 28.6L23 24.7V37.5H28C34.9 37.5 40.5 31.9 40.5 25C40.5 18.1 34.9 12.5 28 12.5Z" fill="#EFFC76"/>
</g>
<defs>
<clipPath id="clip0_333_22020">
<rect width="40" height="40" fill="white" transform="translate(0.5)"/>
</clipPath>
</defs>
</svg>
