<svg width="20" height="20" viewBox="0 0 20 20" fill="none" xmlns="http://www.w3.org/2000/svg">
<path d="M2.5 8.33366C2.5 5.19116 2.5 3.61949 3.47667 2.64366C4.45333 1.66783 6.02417 1.66699 9.16667 1.66699H10.8333C13.9758 1.66699 15.5475 1.66699 16.5233 2.64366C17.4992 3.62033 17.5 5.19116 17.5 8.33366V11.667C17.5 14.8095 17.5 16.3812 16.5233 17.357C15.5467 18.3328 13.9758 18.3337 10.8333 18.3337H9.16667C6.02417 18.3337 4.4525 18.3337 3.47667 17.357C2.50083 16.3803 2.5 14.8095 2.5 11.667V8.33366Z" stroke="#121315" stroke-width="1.5"/>
<path d="M6.66699 8.33398H13.3337M6.66699 11.6673H10.8337" stroke="#121315" stroke-width="1.5" stroke-linecap="round"/>
</svg>
