<svg width="33" height="32" viewBox="0 0 33 32" fill="none" xmlns="http://www.w3.org/2000/svg">
<g clip-path="url(#clip0_261_1996)">
<path d="M28.3968 16.6436L19.1667 25.7334C18.9933 25.9041 18.7583 26 18.5132 26C18.2681 26 18.033 25.9041 17.8597 25.7334C17.6864 25.5627 17.589 25.3312 17.589 25.0899C17.589 24.8485 17.6864 24.617 17.8597 24.4463L25.5152 16.909H5.59098C5.34618 16.909 5.11141 16.8132 4.93831 16.6428C4.76521 16.4723 4.66797 16.2411 4.66797 16C4.66797 15.7589 4.76521 15.5277 4.93831 15.3572C5.11141 15.1868 5.34618 15.091 5.59098 15.091L25.5152 15.091L17.8597 7.5537C17.6864 7.38301 17.589 7.15152 17.589 6.91014C17.589 6.66875 17.6864 6.43726 17.8597 6.26657C18.033 6.09589 18.2681 6 18.5132 6C18.7583 6 18.9933 6.09589 19.1667 6.26657L28.3968 15.3564C28.4828 15.4409 28.551 15.5412 28.5975 15.6516C28.644 15.762 28.668 15.8804 28.668 16C28.668 16.1196 28.644 16.238 28.5975 16.3484C28.551 16.4588 28.4828 16.5591 28.3968 16.6436Z" fill="white" fill-opacity="0.6"/>
</g>
<defs>
<clipPath id="clip0_261_1996">
<rect width="32" height="32" fill="white" transform="matrix(0 1 -1 0 32.668 0)"/>
</clipPath>
</defs>
</svg>
