<svg width="32" height="32" viewBox="0 0 32 32" fill="none" xmlns="http://www.w3.org/2000/svg">
<g clip-path="url(#clip0_69_2040)">
<path d="M27.7288 16.6436L18.4987 25.7334C18.3254 25.9041 18.0903 26 17.8452 26C17.6001 26 17.365 25.9041 17.1917 25.7334C17.0184 25.5627 16.921 25.3312 16.921 25.0899C16.921 24.8485 17.0184 24.617 17.1917 24.4463L24.8472 16.909H4.92301C4.67822 16.909 4.44344 16.8132 4.27034 16.6428C4.09725 16.4723 4 16.2411 4 16C4 15.7589 4.09725 15.5277 4.27034 15.3572C4.44344 15.1868 4.67822 15.091 4.92301 15.091L24.8472 15.091L17.1917 7.5537C17.0184 7.38301 16.921 7.15152 16.921 6.91014C16.921 6.66875 17.0184 6.43726 17.1917 6.26657C17.365 6.09589 17.6001 6 17.8452 6C18.0903 6 18.3254 6.09589 18.4987 6.26657L27.7288 15.3564C27.8148 15.4409 27.883 15.5412 27.9295 15.6516C27.976 15.762 28 15.8804 28 16C28 16.1196 27.976 16.238 27.9295 16.3484C27.883 16.4588 27.8148 16.5591 27.7288 16.6436Z" fill="#EFFC76"/>
</g>
<defs>
<clipPath id="clip0_69_2040">
<rect width="32" height="32" fill="white" transform="matrix(0 1 -1 0 32 0)"/>
</clipPath>
</defs>
</svg>
